# xmcd
#
# Track frame offsets:
#	150
#	13999
#	25674
#	37687
#	50842
#	62430
#	75484
#	89790
#	102838
#	115021
#	127870
#	139825
#	152697
#	164577
#	178870
#	189745
#	201906
#	213538
#	225519
#	236527
#	246692
#	259259
#	272815
#	281775
#	292833
#
# Disc length: 4093 seconds
# Revision: 1
# Processed by: cddbd v1.5.2PL0 Copyright (c) Steve Scherf et al.
# Submitted via: dBpowerAMP V12.0
#
DISCID=6e0ffb19
DTITLE=Various Artist - Let Me Tell You About The Blues - West Coast
DYEAR=1951
DGENRE=Blues
TTITLE0=Pee Wee Crayton - When It Rains It Pours
TTITLE1=Pete 'Guitar' Lewis - Louisiana Hop
TTITLE2=Little Ester - Better Beware
TTITLE3=Percy Mayfield - The River's Invitation
TTITLE4=Lloyd Price - Lawdy Miss Clawdy
TTITLE5=Mabel Scott - Walkin' Daddy
TTITLE6=Johnny Otis and Mel Walker - Call Operator 210
TTITLE7=Willie Mae Thornton - Hound Dog
TTITLE8=Little Willie Littlefield - KC Lovin'
TTITLE9=Amos Milburn - Let Me Go Home Whiskey
TTITLE10=Jimmy Witherspoon - Jay's Blues (Part 1)
TTITLE11=Linda Hayes - Yes I Know
TTITLE12=Young John Watson - Motorhead Baby
TTITLE13=Jimmy Wilson - Tin Pan Alley
TTITLE14=Oscar McLollie - The Honey Jump (Part 1)
TTITLE15=Effie Smith - Cry Baby Cry
TTITLE16=T-Bone Walker - Strugglin' Blues
TTITLE17=James Reed - Things Ain't What The Used To Be
TTITLE18=Jimmy Liggins - I Ain't Drunk
TTITLE19=Daddy Cleanhead - Something's Goin' On In My Room
TTITLE20=Johnny Fuller - Roughest Place In Town
TTITLE21=Etta James - The Wallflower
TTITLE22=Peppermint Harris - Cadillac Funeral
TTITLE23=Jimmy Nolen - Strollin' With Nolen
TTITLE24=Jimmy McCracklin - Savoy's Jump
EXTD=
EXTT0=
EXTT1=
EXTT2=
EXTT3=
EXTT4=
EXTT5=
EXTT6=
EXTT7=
EXTT8=
EXTT9=
EXTT10=
EXTT11=
EXTT12=
EXTT13=
EXTT14=
EXTT15=
EXTT16=
EXTT17=
EXTT18=
EXTT19=
EXTT20=
EXTT21=
EXTT22=
EXTT23=
EXTT24=
PLAYORDER=
